<svg width="50" height="50" viewBox="0 0 50 50" fill="none" xmlns="http://www.w3.org/2000/svg">
<circle cx="25" cy="25" r="24" stroke="#394931" stroke-width="2"/>
<path d="M25.1318 12.9668H12.4643C12.4269 12.9664 12.3895 12.97 12.3529 12.9775H10.8571C10.6304 12.9775 10.4128 13.0674 10.2522 13.2276C10.0915 13.3877 10.0009 13.6051 10 13.832V32.4668C10.0011 32.6935 10.0919 32.9106 10.2526 33.0705C10.4132 33.2305 10.6306 33.3202 10.8571 33.3202H12.3282C12.3726 33.3318 12.4184 33.3375 12.4643 33.3374H25.1179V36.5154C25.1176 36.9043 24.9965 37.2835 24.7715 37.6005C24.5464 37.9176 24.2285 38.1568 23.8616 38.2851C23.4948 38.4135 23.0971 38.4246 22.7237 38.3169C22.3503 38.2092 22.0195 37.9881 21.7771 37.6841C22.1017 37.633 22.4051 37.4908 22.652 37.2741C22.899 37.0573 23.0795 36.7749 23.1724 36.4596C23.2653 36.1442 23.2669 35.809 23.177 35.4928C23.0871 35.1766 22.9094 34.8925 22.6645 34.6733C22.4196 34.4542 22.1176 34.3091 21.7936 34.255C21.4696 34.2008 21.1368 34.2398 20.8341 34.3673C20.5313 34.4949 20.2709 34.7058 20.0832 34.9756C19.8955 35.2454 19.7881 35.5629 19.7736 35.8914C19.7662 35.9382 19.7619 35.9855 19.7607 36.0329V36.5154C19.7607 37.4396 20.1276 38.3259 20.7806 38.9794C21.4336 39.6329 22.3193 40 23.2429 40C24.1664 40 25.0521 39.6329 25.7051 38.9794C26.3581 38.3259 26.725 37.4396 26.725 36.5154V33.3374H39.4643C39.6064 33.3374 39.7426 33.2809 39.8431 33.1804C39.9436 33.0798 40 32.9435 40 32.8013C40 32.6591 39.9436 32.5227 39.8431 32.4222C39.7426 32.3217 39.6064 32.2652 39.4643 32.2652H26.725V32.1676C27.5589 31.9168 28.3079 31.4417 28.8906 30.7941C29.4732 30.1466 29.8671 29.3515 30.0293 28.4954H39.4643C39.6064 28.4954 39.7426 28.4389 39.8431 28.3383C39.9436 28.2378 40 28.1014 40 27.9593C40 27.8171 39.9436 27.6807 39.8431 27.5802C39.7426 27.4796 39.6064 27.4232 39.4643 27.4232H30.1064C30.0617 26.5056 29.7001 25.6321 29.0834 24.9516C28.4667 24.2711 27.6332 23.8259 26.725 23.6919V23.6855H39.4643C39.6064 23.6855 39.7426 23.629 39.8431 23.5285C39.9436 23.4279 40 23.2916 40 23.1494C40 23.0072 39.9436 22.8709 39.8431 22.7703C39.7426 22.6698 39.6064 22.6133 39.4643 22.6133H26.725V21.2495C26.7607 21.2438 26.7961 21.2362 26.8311 21.2269C27.5674 21.1028 28.2699 20.8271 28.8944 20.4174C29.5188 20.0077 30.0515 19.4729 30.4589 18.8467H39.4643C39.6064 18.8467 39.7426 18.7902 39.8431 18.6897C39.9436 18.5891 40 18.4528 40 18.3106C40 18.1684 39.9436 18.032 39.8431 17.9315C39.7426 17.831 39.6064 17.7745 39.4643 17.7745H30.9979C31.2205 17.1737 31.3337 16.5378 31.3321 15.8971V14.039H39.4643C39.6064 14.039 39.7426 13.9825 39.8431 13.8819C39.9436 13.7814 40 13.645 40 13.5029C40 13.3607 39.9436 13.2243 39.8431 13.1238C39.7426 13.0232 39.6064 12.9668 39.4643 12.9668H31.3289C31.2905 12.1683 30.9469 11.4151 30.3692 10.8629C29.7915 10.3107 29.0239 10.0018 28.225 10C27.4269 10.0009 26.6599 10.3098 26.0837 10.8625C25.5075 11.4151 25.1665 12.1688 25.1318 12.9668ZM25.1286 14.039V17.7734H16.7393V14.039H25.1286ZM26.7357 17.7734V14.039H29.725V15.8971C29.725 16.5801 29.545 17.2202 29.23 17.7734H26.7357ZM25.1286 18.8456V19.8074C23.4185 20.1799 21.9105 21.1813 20.9029 22.6133H16.7393V18.8456H25.1286ZM20.2814 23.6855C19.8529 24.6077 19.6313 25.6127 19.6321 26.6297C19.6321 26.8992 19.65 27.1637 19.6857 27.4232H16.7393V23.6855H20.2814ZM21.3154 27.4232C21.2654 27.1616 21.24 26.896 21.2393 26.6297C21.2393 25.5425 21.5618 24.5304 22.1179 23.6855H25.1179V23.812C24.4493 24.0309 23.8667 24.4552 23.4531 25.0247C23.0395 25.5941 22.816 26.2796 22.8143 26.9836C22.8143 27.1455 22.8625 27.2966 22.945 27.4232H21.3154ZM19.9418 28.4954C20.2714 29.4511 20.8471 30.3029 21.6109 30.9648C22.3747 31.6267 23.2994 32.0753 24.2918 32.2652H16.7393V28.4954H19.9418ZM21.6839 28.4954H25.1179V30.7502C24.3985 30.7072 23.703 30.4765 23.1005 30.0809C22.498 29.6853 22.0096 29.1386 21.6839 28.4954ZM26.725 28.4954V30.4467C27.1216 30.2552 27.4736 29.9825 27.7583 29.6464C28.0431 29.3103 28.2543 28.9182 28.3782 28.4954H26.725ZM28.4961 27.4232H26.725V25.3292C27.2015 25.4498 27.6284 25.7165 27.946 26.092C28.2636 26.4675 28.4559 26.9329 28.4961 27.4232ZM25.1179 27.4232H24.2907C24.376 27.2924 24.4214 27.1397 24.4214 26.9836C24.4214 26.4185 24.6957 25.9157 25.1179 25.6004V27.4232ZM25.1179 22.6133H23.0436C23.6408 22.0811 24.3496 21.6894 25.1179 21.4671V22.6133ZM26.7357 18.8456H28.3214C27.8606 19.2216 27.3171 19.4825 26.7357 19.6069V18.8456ZM29.7175 12.9668H26.7411C26.7747 12.596 26.9455 12.2511 27.2201 11.9998C27.4946 11.7485 27.853 11.6089 28.225 11.6083C28.9975 11.6083 29.6414 12.2044 29.7175 12.9668Z" fill="#394931"/>
</svg>
